<?xml version="1.0" encoding="UTF-8" standalone="no"?>
<!-- Created with Inkscape (http://www.inkscape.org/) -->

<svg
   width="215.31335"
   height="199.27676"
   viewBox="0 0 215.31335 199.27676"
   version="1.1"
   id="SVGRoot"
   xml:space="preserve"
   xmlns="http://www.w3.org/2000/svg"
   xmlns:svg="http://www.w3.org/2000/svg"><defs
     id="defs161" /><g
     id="layer1"
     transform="translate(-1624.9542,-127.29217)"><path
       style="fill:#000000"
       d="m 1636.7805,238.56648 c 3.5857,19.2722 1.7491,39.1446 6.6645,58.3145 1.0505,4.0971 3.1735,7.8473 4.9984,11.6629 2.2727,4.752 5.2472,10.4266 9.9968,13.3291 13.687,8.3643 28.6277,3.7456 42.4863,0 19.1679,-2.93492 66.6644,6.33089 81.5589,-0.49448 25.1146,-7.3969 17.5341,-23.55594 35.9033,-41.15882 1.3433,-0.4477 2.8506,-0.3072 4.1653,-0.833 0.2578,-0.1032 -0.1963,-0.6367 0,-0.8331 0.1964,-0.1964 0.5554,0 0.8331,0 1.6661,-2.4992 3.5541,-4.8639 4.9984,-7.4976 3.2842,-5.9888 7.0038,-11.8477 9.1637,-18.3274 3.4878,-10.4635 2.4992,-26.222 2.4992,-36.6549 0,-3.6099 0.4932,-7.2537 0,-10.8298 -2.8212,-20.4536 -13.1697,-27.8762 -29.9904,-37.488 -2.6956,-1.5403 -5.7275,-2.4733 -8.3306,-4.1653 -8.2095,-5.3361 -14.1976,-13.0987 -19.9936,-20.8266 -3.5077,-4.677 -7.0317,-12.4447 -13.329,-14.1621 -9.4371,-2.5738 -26.006,-0.677 -35.8218,0 -9.2415,0.6373 -23.9176,0.9214 -32.4896,3.3322 -9.6165,2.7047 -21.6602,18.7908 -28.3242,25.8251 -5.9026,6.2305 -6.1726,6.5595 -11.6629,10.8298 -2.983,2.3201 -5.948,3.6011 -8.3306,6.6645 -1.9882,2.5562 -3.0937,5.7117 -4.9984,8.3307 -1.2757,1.754 -2.8641,3.2633 -4.1654,4.9984 -3.563,4.7507 -7.1514,9.3607 -9.1637,14.9951 -1.4499,4.0598 -1.859,8.4447 -3.3322,12.496 -0.3422,0.941 -1.2718,1.5789 -1.6662,2.4992 -1.3415,3.1303 -4.2079,10.6595 -3.3322,14.1621 0.9467,3.7869 4.3933,6.1355 6.6645,9.1637 3.7594,5.0125 3.0131,7.4178 9.9968,9.1638"
       id="path954-4" /></g></svg>
