<?xml version="1.0" encoding="UTF-8" standalone="no"?>
<!-- Created with Inkscape (http://www.inkscape.org/) -->

<svg
   width="215.31342"
   height="199.27676"
   viewBox="0 0 215.31342 199.27676"
   version="1.1"
   id="SVGRoot"
   sodipodi:docname="f.svg"
   inkscape:version="1.2.1 (9c6d41e410, 2022-07-14)"
   xmlns:inkscape="http://www.inkscape.org/namespaces/inkscape"
   xmlns:sodipodi="http://sodipodi.sourceforge.net/DTD/sodipodi-0.dtd"
   xmlns="http://www.w3.org/2000/svg"
   xmlns:svg="http://www.w3.org/2000/svg">
  <sodipodi:namedview
     id="namedview166"
     pagecolor="#ffffff"
     bordercolor="#000000"
     borderopacity="0.25"
     inkscape:showpageshadow="2"
     inkscape:pageopacity="0.0"
     inkscape:pagecheckerboard="0"
     inkscape:deskcolor="#d1d1d1"
     inkscape:document-units="px"
     showgrid="false"
     inkscape:zoom="1.2003863"
     inkscape:cx="105.79928"
     inkscape:cy="665.61907"
     inkscape:window-width="1920"
     inkscape:window-height="1009"
     inkscape:window-x="-8"
     inkscape:window-y="-8"
     inkscape:window-maximized="1"
     inkscape:current-layer="layer1"
     showguides="false">
    <sodipodi:guide
       position="217.62129,122.13115"
       orientation="1,0"
       id="guide18"
       inkscape:locked="false" />
  </sodipodi:namedview>
  <defs
     id="defs161" />
  <g
     inkscape:label="圖層 1"
     inkscape:groupmode="layer"
     id="layer1"
     transform="translate(-301.3783,-457.68222)">
    <path
       style="fill:#ffffff;fill-opacity:1"
       d="m 313.20457,568.95649 c 3.58575,19.27223 1.74916,39.14463 6.66453,58.31456 1.05053,4.09709 3.17349,7.84723 4.99839,11.66292 2.27269,4.75199 5.24719,10.42651 9.99678,13.32904 13.68704,8.3643 28.62771,3.74557 42.48632,0 13.84667,-3.74234 15.52101,-3.17864 27.49115,-9.16372 4.34474,-2.17237 8.05708,-5.52474 12.49598,-7.49758 1.04626,-0.46501 2.25626,-0.44179 3.33226,-0.83307 17.65284,-6.41921 -11.26062,2.64279 16.6613,-6.66452 11.44158,-3.81386 23.45321,-5.77091 34.98874,-9.16372 28.43994,-8.36469 2.66898,-1.72272 22.49276,-8.33065 1.34328,-0.44776 2.85066,-0.3072 4.16533,-0.83306 0.25782,-0.10314 -0.19636,-0.63671 0,-0.83307 0.19635,-0.19636 0.55537,0 0.83306,0 1.66613,-2.4992 3.55414,-4.86394 4.99839,-7.49759 3.2842,-5.98883 7.00381,-11.8477 9.16372,-18.32743 3.48781,-10.46344 2.4992,-26.222 2.4992,-36.65487 0,-3.60995 0.49325,-7.25375 0,-10.82984 -2.82119,-20.45358 -13.16972,-27.87615 -29.99035,-37.48794 -2.69559,-1.54034 -5.72758,-2.47333 -8.33065,-4.16532 -8.20946,-5.33615 -14.1976,-13.09868 -19.99357,-20.82663 -3.50774,-4.67699 -7.03168,-12.44465 -13.32904,-14.16211 -9.43707,-2.57375 -26.00595,-0.67696 -35.8218,0 -9.24143,0.63734 -23.91759,0.9214 -32.48954,3.33226 -9.61653,2.70465 -21.66021,18.79079 -28.32422,25.82502 -5.90264,6.23057 -6.17258,6.55959 -11.66291,10.82985 -2.98303,2.32013 -5.94798,3.60109 -8.33065,6.66452 -1.98817,2.55622 -3.09367,5.71166 -4.99839,8.33065 -1.27564,1.754 -2.86404,3.26334 -4.16533,4.99839 -3.56307,4.75076 -7.15144,9.36079 -9.16372,14.99517 -1.4499,4.05974 -1.85904,8.44464 -3.33226,12.49598 -0.34216,0.94094 -1.27173,1.57893 -1.66613,2.4992 -1.34153,3.13024 -4.20791,10.6595 -3.33226,14.16211 0.94673,3.78692 4.39333,6.13545 6.66452,9.16371 3.75938,5.01251 3.01313,7.4178 9.99678,9.16372"
       id="path954-1"
       inkscape:export-filename="path954.svg"
       inkscape:export-xdpi="96"
       inkscape:export-ydpi="96" />
    <path
       style="fill:#000000;fill-opacity:1"
       id="path855-7"
       d="m 366.68521,527.90262 c -1.35686,4.22742 -1.03139,8.71788 -1.51926,13.07653 -0.20942,1.15646 -0.0807,0.55001 -0.39884,1.81659 -0.29726,1.10957 15.3944,5.31341 15.69166,4.20384 v 0 c 0.82332,-2.23564 0.4031,-1.01315 1.23071,-3.67762 1.10068,-5.06176 2.02987,-10.2234 1.32811,-15.41934 0,-1.15487 -16.33238,-1.15487 -16.33238,0 z" />
    <path
       style="fill:#000000;fill-opacity:1"
       id="path861-6"
       d="m 424.99977,525.40343 c -1.30596,6.26173 -0.9627,12.75386 -0.61795,19.10428 0.0876,0.75683 0.17515,1.51365 0.26273,2.27048 0,1.20511 17.04282,1.20511 17.04282,0 v 0 c 0.0876,-0.75683 0.17515,-1.51365 0.26272,-2.27048 0.34476,-6.35042 0.68802,-12.84255 -0.61794,-19.10428 0,-1.15488 -16.33238,-1.15488 -16.33238,0 z" />
    <path
       style="fill:#000000;fill-opacity:1;stroke-width:0.459785"
       id="path877-4"
       d="m 372.01694,565.3527 c 19.58899,0.2854 39.2316,-0.19957 58.72807,-1.00598 3.45178,-0.14278 6.89123,-0.33481 10.33685,-0.50221 0.3283,-0.0459 -1.20134,-2.01458 -1.52964,-1.96872 v 0 c -11.16478,0.21686 -12.3457,0.2116 -24.45845,0.58687 -18.69161,0.5791 -10.96373,0.40091 -28.66507,1.05703 -5.10164,0.18909 -10.21601,0.31355 -15.31259,0.52878 -0.21749,0.027 0.68334,1.33124 0.90083,1.30423 z" />
  </g>
</svg>
