<?xml version="1.0" encoding="UTF-8" standalone="no"?>
<!-- Created with Inkscape (http://www.inkscape.org/) -->

<svg
   width="103.47629"
   height="130.89005"
   viewBox="0 0 103.47629 130.89005"
   version="1.1"
   id="SVGRoot"
   sodipodi:docname="C:\Users\junsu\AppData\Local\Temp\ink_ext_XXXXXX.svgFNUPP1"
   xmlns:inkscape="http://www.inkscape.org/namespaces/inkscape"
   xmlns:sodipodi="http://sodipodi.sourceforge.net/DTD/sodipodi-0.dtd"
   xmlns="http://www.w3.org/2000/svg"
   xmlns:svg="http://www.w3.org/2000/svg">
  <sodipodi:namedview
     id="namedview166"
     pagecolor="#ffffff"
     bordercolor="#000000"
     borderopacity="0.25"
     inkscape:showpageshadow="2"
     inkscape:pageopacity="0.0"
     inkscape:pagecheckerboard="0"
     inkscape:deskcolor="#d1d1d1"
     inkscape:document-units="px"
     showgrid="false"
     inkscape:zoom="0.25"
     inkscape:cx="1511.5"
     inkscape:cy="1133.5"
     inkscape:window-width="1920"
     inkscape:window-height="1009"
     inkscape:window-x="-8"
     inkscape:window-y="-8"
     inkscape:window-maximized="0"
     inkscape:current-layer="layer1" />
  <defs
     id="defs161" />
  <g
     inkscape:label="圖層 1"
     inkscape:groupmode="layer"
     id="layer1"
     transform="translate(366.95154,-129.79352)">
    <path
       style="fill:#000000"
       d="m -366.95155,150.30119 c 8.57574,-5.41626 16.15026,-12.90798 25.72723,-16.24878 10.30766,-3.5957 21.62299,-3.10267 32.49755,-4.06219 4.49609,-0.39672 9.0271,0 13.54065,0 0.45136,0 1.26555,-0.44259 1.35407,0 0.44259,2.21295 0,4.51355 0,6.77032 0,4.06219 0.76713,8.19748 0,12.18658 -6.23514,32.42272 -27.95732,58.14029 -48.74633,82.59795 -4.97802,5.8565 -11.16192,10.88381 -14.89472,17.60285 -0.90377,1.62679 -0.66291,3.68837 -1.35406,5.41625 -0.34135,0.85338 -2.29584,1.29547 -1.35407,2.70813 2.74197,4.11295 5.42192,3.79025 10.83252,2.70813 14.20459,-2.84091 27.08436,-8.61789 40.62194,-13.54064 13.95022,-5.07281 25.88562,-7.65721 37.91382,-16.24878 1.83641,-1.31172 2.46641,-3.82048 4.06219,-5.41626 0.71366,-0.71365 1.99448,-0.64041 2.70813,-1.35406 1.27663,-1.27663 0,-3.61084 0,-5.41626"
       id="path311" />
  </g>
</svg>
