<?xml version="1.0" encoding="UTF-8" standalone="no"?>
<!-- Created with Inkscape (http://www.inkscape.org/) -->

<svg
   width="62.715218"
   height="162.63019"
   viewBox="0 0 62.715218 162.63019"
   version="1.1"
   id="SVGRoot"
   sodipodi:docname="C:\Users\junsu\AppData\Local\Temp\ink_ext_XXXXXX.svgFNUPP1"
   xmlns:inkscape="http://www.inkscape.org/namespaces/inkscape"
   xmlns:sodipodi="http://sodipodi.sourceforge.net/DTD/sodipodi-0.dtd"
   xmlns="http://www.w3.org/2000/svg"
   xmlns:svg="http://www.w3.org/2000/svg">
  <sodipodi:namedview
     id="namedview166"
     pagecolor="#ffffff"
     bordercolor="#000000"
     borderopacity="0.25"
     inkscape:showpageshadow="2"
     inkscape:pageopacity="0.0"
     inkscape:pagecheckerboard="0"
     inkscape:deskcolor="#d1d1d1"
     inkscape:document-units="px"
     showgrid="false"
     inkscape:zoom="0.25"
     inkscape:cx="1511.5"
     inkscape:cy="1133.5"
     inkscape:window-width="1920"
     inkscape:window-height="1009"
     inkscape:window-x="-8"
     inkscape:window-y="-8"
     inkscape:window-maximized="0"
     inkscape:current-layer="layer1" />
  <defs
     id="defs161" />
  <g
     inkscape:label="圖層 1"
     inkscape:groupmode="layer"
     id="layer1"
     transform="translate(181.44469,-110.89089)">
    <path
       style="fill:#000000"
       d="m -181.44468,121.86583 c 5.86762,-3.15949 11.3399,-7.20102 17.60284,-9.47846 3.84112,-1.39676 8.10845,-1.08218 12.18659,-1.35406 10.60403,-0.70694 21.96002,0.83176 23.0191,13.54065 1.71767,20.61209 -8.39586,39.33233 -21.66504,54.16259 -3.83061,4.28127 -7.93577,8.3222 -12.18658,12.18658 -0.74679,0.6789 -1.69887,1.35407 -2.70813,1.35407 -0.45136,0 -0.28895,-1.00733 0,-1.35407 9.89286,-11.87143 21.56959,-18.667 36.55975,-21.66504 9.66403,-1.9328 10.74151,0.81903 9.47845,12.18659 -1.23667,11.13003 -7.48395,16.76332 -13.54065,25.72723 -42.63532,63.10028 -7.75007,14.14954 -39.26787,55.51665 -9.14091,11.99745 -3.69612,6.40424 -8.12439,10.83252"
       id="path317" />
  </g>
</svg>
