<?xml version="1.0" encoding="UTF-8" standalone="no"?>
<!-- Created with Inkscape (http://www.inkscape.org/) -->

<svg
   width="117.96075"
   height="157.07153"
   viewBox="0 0 117.96075 157.07153"
   version="1.1"
   id="SVGRoot"
   sodipodi:docname="C:\Users\junsu\AppData\Local\Temp\ink_ext_XXXXXX.svgFNUPP1"
   xmlns:inkscape="http://www.inkscape.org/namespaces/inkscape"
   xmlns:sodipodi="http://sodipodi.sourceforge.net/DTD/sodipodi-0.dtd"
   xmlns="http://www.w3.org/2000/svg"
   xmlns:svg="http://www.w3.org/2000/svg">
  <sodipodi:namedview
     id="namedview166"
     pagecolor="#ffffff"
     bordercolor="#000000"
     borderopacity="0.25"
     inkscape:showpageshadow="2"
     inkscape:pageopacity="0.0"
     inkscape:pagecheckerboard="0"
     inkscape:deskcolor="#d1d1d1"
     inkscape:document-units="px"
     showgrid="false"
     inkscape:zoom="0.25"
     inkscape:cx="1511.5"
     inkscape:cy="1133.5"
     inkscape:window-width="1920"
     inkscape:window-height="1009"
     inkscape:window-x="-8"
     inkscape:window-y="-8"
     inkscape:window-maximized="0"
     inkscape:current-layer="layer1" />
  <defs
     id="defs161" />
  <g
     inkscape:label="圖層 1"
     inkscape:groupmode="layer"
     id="layer1"
     transform="translate(667.68878,-389.97064)">
    <path
       style="fill:#000000"
       d="m -639.11857,391.32472 c -3.15948,9.47845 -6.17786,19.00511 -9.47845,28.43536 -7.65812,21.88033 -17.39551,42.92819 -18.95691,66.34917 -0.0636,0.95417 -0.67342,9.21053 1.35407,10.83252 1.45318,1.16254 3.5589,1.23798 5.41626,1.35406 21.78188,1.36137 12.60588,0.13517 35.20568,-6.77032 9.84323,-3.00765 19.72542,-5.96782 29.78943,-8.12439 8.92546,-1.9126 18.06263,-2.65303 27.08129,-4.0622 5.42515,-0.84767 10.813,-1.93158 16.24878,-2.70812 3.15948,-0.45136 2.70813,1.12838 2.70813,-1.35407"
       id="path343"
       inkscape:export-filename=".\path343.svg"
       inkscape:export-xdpi="96"
       inkscape:export-ydpi="96" />
    <path
       style="fill:#000000"
       d="m -575.47752,389.97065 c 0,2.25678 0.63678,4.60525 0,6.77032 -1.65565,5.62919 -4.52683,10.82701 -6.77033,16.24878 -10.89028,26.3182 -23.28863,52.12828 -33.85162,78.53576 -3.65823,5.28873 -2.00427,11.94357 -4.06219,17.60284 -2.10085,5.77734 -8.83574,11.98407 -12.18658,16.24878 -1.74603,2.22221 -15.78968,21.66503 -17.60284,21.66503"
       id="path353" />
  </g>
</svg>
