<?xml version="1.0" encoding="UTF-8" standalone="no"?>
<!-- Created with Inkscape (http://www.inkscape.org/) -->

<svg
   width="126.11264"
   height="155.79718"
   viewBox="0 0 126.11264 155.79718"
   version="1.1"
   id="SVGRoot"
   sodipodi:docname="C:\Users\junsu\AppData\Local\Temp\ink_ext_XXXXXX.svgFNUPP1"
   xmlns:inkscape="http://www.inkscape.org/namespaces/inkscape"
   xmlns:sodipodi="http://sodipodi.sourceforge.net/DTD/sodipodi-0.dtd"
   xmlns="http://www.w3.org/2000/svg"
   xmlns:svg="http://www.w3.org/2000/svg">
  <sodipodi:namedview
     id="namedview166"
     pagecolor="#ffffff"
     bordercolor="#000000"
     borderopacity="0.25"
     inkscape:showpageshadow="2"
     inkscape:pageopacity="0.0"
     inkscape:pagecheckerboard="0"
     inkscape:deskcolor="#d1d1d1"
     inkscape:document-units="px"
     showgrid="false"
     inkscape:zoom="0.25"
     inkscape:cx="1511.5"
     inkscape:cy="1133.5"
     inkscape:window-width="1920"
     inkscape:window-height="1009"
     inkscape:window-x="-8"
     inkscape:window-y="-8"
     inkscape:window-maximized="0"
     inkscape:current-layer="layer1" />
  <defs
     id="defs161" />
  <g
     inkscape:label="圖層 1"
     inkscape:groupmode="layer"
     id="layer1"
     transform="translate(520.14032,-389.97064)">
    <path
       style="fill:#000000"
       d="m -473.92267,389.97065 c 2.20565,22.05643 2.43169,5.6693 -4.06219,29.78943 -2.76186,10.25834 -4.3815,20.79191 -6.77032,31.14348 -0.63952,2.77126 -1.86734,6.51369 -1.35407,6.77033 3.82518,1.91259 9.21624,-1.16851 13.54065,1.35406 3.40621,1.98696 19.82457,15.89385 21.66504,20.31097 3.1571,7.57706 4.95883,19.64305 0,27.0813 -1.41629,2.12443 -3.61084,3.61084 -5.41626,5.41626 -12.2631,12.26309 -26.3134,23.33035 -43.33008,28.43536 -3.91482,1.17444 -8.17876,0.5525 -12.18658,1.35406 -2.79918,0.55984 -5.57114,1.43151 -8.12439,2.70813 -0.4037,0.20186 0,1.80542 0,1.35407 0,-9.57169 -0.7765,-2.9529 9.47846,-17.60284"
       id="path355" />
    <path
       style="fill:#000000"
       d="m -505.06616,429.23853 c 4.96491,-2.25678 9.55222,-5.67443 14.89472,-6.77033 12.45101,-2.55405 25.28128,-2.65858 37.91381,-4.06219 5.87015,-0.65224 38.68659,-6.51273 46.0382,-4.06219 3.69273,1.23091 6.03316,8.32304 8.12439,10.83251 4.38135,5.25762 4.0622,1.94072 4.0622,5.41626"
       id="path361" />
  </g>
</svg>
