<?xml version="1.0" encoding="UTF-8" standalone="no"?>
<!-- Created with Inkscape (http://www.inkscape.org/) -->

<svg
   width="86.566772"
   height="122.42029"
   viewBox="0 0 86.566772 122.42029"
   version="1.1"
   id="SVGRoot"
   sodipodi:docname="C:\Users\junsu\AppData\Local\Temp\ink_ext_XXXXXX.svgFNUPP1"
   xmlns:inkscape="http://www.inkscape.org/namespaces/inkscape"
   xmlns:sodipodi="http://sodipodi.sourceforge.net/DTD/sodipodi-0.dtd"
   xmlns="http://www.w3.org/2000/svg"
   xmlns:svg="http://www.w3.org/2000/svg">
  <sodipodi:namedview
     id="namedview166"
     pagecolor="#ffffff"
     bordercolor="#000000"
     borderopacity="0.25"
     inkscape:showpageshadow="2"
     inkscape:pageopacity="0.0"
     inkscape:pagecheckerboard="0"
     inkscape:deskcolor="#d1d1d1"
     inkscape:document-units="px"
     showgrid="false"
     inkscape:zoom="0.25"
     inkscape:cx="1511.5"
     inkscape:cy="1133.5"
     inkscape:window-width="1920"
     inkscape:window-height="1009"
     inkscape:window-x="-8"
     inkscape:window-y="-8"
     inkscape:window-maximized="0"
     inkscape:current-layer="layer1" />
  <defs
     id="defs161" />
  <g
     inkscape:label="圖層 1"
     inkscape:groupmode="layer"
     id="layer1"
     transform="translate(343.729,-410.28162)">
    <path
       style="fill:#000000"
       d="m -274.87515,410.28162 c -14.72819,11.04615 -26.81912,18.9663 -39.26787,32.49756 -4.71529,5.12531 -24.58809,32.24743 -27.0813,37.91381 -1.82685,4.15192 -0.85314,9.03233 -1.35406,13.54065 -1.6458,14.81217 -4.13414,28.13577 13.54064,35.20568 15.93876,6.3755 35.43543,2.01836 51.45446,-1.35406 3.52702,-0.74253 16.65648,-1.98991 18.95691,-8.12439 6.44878,-17.19674 -9.54311,-30.02735 -25.72723,-31.14349 -9.90628,-0.68319 -19.85962,0 -29.78942,0 -11.47471,0 -25.72723,-2.27144 -25.72723,2.70813"
       id="path379" />
  </g>
</svg>
