<?xml version="1.0" encoding="UTF-8" standalone="no"?>
<!-- Created with Inkscape (http://www.inkscape.org/) -->

<svg
   width="115.05023"
   height="134.76276"
   viewBox="0 0 115.05023 134.76276"
   version="1.1"
   id="SVGRoot"
   sodipodi:docname="f.svg"
   inkscape:version="1.2.1 (9c6d41e410, 2022-07-14)"
   xmlns:inkscape="http://www.inkscape.org/namespaces/inkscape"
   xmlns:sodipodi="http://sodipodi.sourceforge.net/DTD/sodipodi-0.dtd"
   xmlns="http://www.w3.org/2000/svg"
   xmlns:svg="http://www.w3.org/2000/svg">
  <sodipodi:namedview
     id="namedview166"
     pagecolor="#ffffff"
     bordercolor="#000000"
     borderopacity="0.25"
     inkscape:showpageshadow="2"
     inkscape:pageopacity="0.0"
     inkscape:pagecheckerboard="0"
     inkscape:deskcolor="#d1d1d1"
     inkscape:document-units="px"
     showgrid="false"
     inkscape:zoom="1.2003863"
     inkscape:cx="105.79928"
     inkscape:cy="665.61907"
     inkscape:window-width="1920"
     inkscape:window-height="1009"
     inkscape:window-x="-8"
     inkscape:window-y="-8"
     inkscape:window-maximized="1"
     inkscape:current-layer="layer1"
     showguides="false">
    <sodipodi:guide
       position="1285.4195,239.57653"
       orientation="1,0"
       id="guide18"
       inkscape:locked="false" />
  </sodipodi:namedview>
  <defs
     id="defs161" />
  <g
     inkscape:label="圖層 1"
     inkscape:groupmode="layer"
     id="layer1"
     transform="translate(766.41992,-639.6416)">
    <path
       style="fill:#000000;stroke-width:1.10208"
       d="m -766.41994,663.95293 c 1.99737,-5.97497 2.60033,-12.15472 2.02363,-18.32743 -0.18292,-1.95777 -1.01182,-3.8679 -1.01182,-5.83146 0,-0.27768 0.70361,-0.11278 1.01182,0 2.75665,1.00874 5.39634,2.22151 8.09453,3.33226 4.04726,1.66614 8.03329,3.43716 12.14179,4.9984 13.5919,5.16493 28.03016,8.75848 41.48447,14.1621 5.04508,2.02625 9.23751,5.2845 14.16542,7.49759 2.52979,1.13611 5.47116,1.51742 8.09453,2.4992 1.53521,0.57454 2.44745,2.06013 4.04726,2.49919 1.00147,0.27485 3.2565,0.182 4.04727,0.83307 0.47699,0.39271 0,1.11075 0,1.66613"
       id="path241"
       inkscape:export-filename="path241.png"
       inkscape:export-xdpi="96"
       inkscape:export-ydpi="96" />
    <path
       style="fill:#000000;stroke-width:0.981408"
       d="m -730.59814,772.33071 c 5.33284,-1.40106 20.06269,3.57741 24.15889,1.60475 0.24837,-0.11961 -0.0276,-0.53624 0,-0.80237 0.25021,-2.40993 0.36256,-4.84223 0.83306,-7.2214 4.50578,-22.7839 0.61411,6.07963 5.83146,-24.07131 1.15643,-6.68299 0.0863,-13.46556 1.66613,-20.05941 1.18027,-4.92611 3.3727,-10.80483 5.83146,-15.24517 1.52394,-2.75213 3.97432,-5.06475 4.99839,-8.02377 1.06528,-3.07811 0,-7.91501 0,-11.23328"
       id="path243" />
    <path
       style="fill:#000000"
       d="m -759.75542,722.26749 c 6.0775,-0.27997 -2.69404,-6.5671 -0.83307,-7.49759 0.49675,-0.24837 1.111,-0.0163 1.66613,0 8.88653,0.26137 17.76914,0.67434 26.65809,0.83307 17.2916,0.30878 33.56935,-0.42449 50.81697,1.66613 3.67791,0.44581 7.21325,1.69551 10.82985,2.49919 3.95028,0.87784 19.13554,0.80811 19.1605,0.83307 0.19635,0.19636 0,0.55538 0,0.83306"
       id="path245" />
  </g>
</svg>
